<svg xmlns="http://www.w3.org/2000/svg" viewBox="0 0 850.394 850.394"><path d="M739.233 681.229L492.164 824.862c-41.946 24.385-89.685 24.526-131.774.39L112.476 683.084c-42.089-24.137-66.081-65.412-66.225-113.934l-.846-285.802c-.144-48.522 23.603-89.939 65.549-114.324L358.023 25.391c41.946-24.385 89.685-24.527 131.774-.39L737.712 167.17c42.089 24.137 66.081 65.412 66.225 113.934l.846 285.802c.143 48.521-23.604 89.938-65.55 114.323zm-99.42-18.04h13.173c11.496-.479 20.598-9.58 20.838-21.076l.001-128.617c0-11.496-9.341-20.837-20.837-21.317h-13.173c-11.975 0-21.556 9.58-21.556 21.316l-.001 128.616c.238 11.497 9.819 21.078 21.555 21.078zm-76.673 0h13.173c11.497-.479 20.598-9.58 20.838-21.077l.001-128.616c0-11.496-9.341-20.837-20.837-21.317h-13.173c-11.976 0-21.556 9.58-21.556 21.316l-.001 128.617c.239 11.496 9.819 21.076 21.555 21.077zm-80.744-1.678l.001-93.648 18.441 82.871c.718 3.353 2.155 10.778 11.496 10.778h7.904l.002-167.657h-17.245l-.001 96.522-17.723-87.182c-.958-4.79-2.634-9.341-12.215-9.341h-7.904l-.002 167.656 17.246.001zm-72.6 1.676h13.173c11.496-.479 20.598-9.58 20.838-21.076l.001-128.617c0-11.496-9.341-20.837-20.837-21.317h-13.173c-11.975 0-21.556 9.58-21.556 21.316l-.002 128.617c.239 11.496 9.82 21.077 21.556 21.077zm-74.273-5.27c0 1.198.719 3.593 4.79 3.593h12.215l.001-146.58c.24-2.155 1.916-4.071 4.311-4.071h13.413c5.509 0 8.143-2.395 9.101-4.55l5.748-12.455-68.499-.001c-2.874 0-5.269 2.395-5.269 5.269v11.736h24.19l-.001 147.059zm-67.092 5.268h13.173c11.496-.479 20.598-9.58 20.837-21.077l.001-128.616c0-11.496-9.341-20.838-20.837-21.316h-13.173c-11.976 0-21.556 9.58-21.556 21.316l-.001 128.616c.239 11.497 9.82 21.077 21.556 21.077zm-74.273-5.269c0 1.197.718 3.593 4.79 3.593h12.215l.002-146.579c.239-2.156 1.916-4.072 4.311-4.072h13.412c5.509 0 8.143-2.395 9.101-4.551l5.748-12.454-68.5-.001c-2.874 0-5.269 2.395-5.269 5.269v11.736h24.191l-.001 147.059zm467.836-451.994c-24.036-24.036-63.006-24.036-87.042 0l-87.115 87.114-87.217-87.217c-22.586-22.586-58.344-23.966-82.543-4.146a62.02 62.02 0 0 0-4.705 4.249L182.808 336.485c-24.036 24.036-24.036 63.006 0 87.042s63.007 24.036 87.042 0l87.115-87.115 87.217 87.218c22.586 22.586 58.344 23.966 82.543 4.146a62.212 62.212 0 0 0 4.705-4.249l130.564-130.563c24.036-24.036 24.036-63.006 0-87.042zm-10.88 76.161c-18.027 18.027-47.255 18.027-65.282 0-18.027-18.027-18.027-47.255 0-65.282 18.027-18.027 47.255-18.027 65.282 0 18.027 18.028 18.027 47.256 0 65.282zm-76.162 10.881c13.003 13.003 30.376 18.957 47.391 17.891l-73.021 73.021c1.066-17.015-4.888-34.388-17.891-47.391-.82-.82-1.66-1.606-2.514-2.37l-30.199-30.199 58.343-58.343c-1.066 17.015 4.888 34.388 17.891 47.391zM520.417 412.74a46.528 46.528 0 0 1-5.346 4.594c-18.054 13.171-43.505 11.611-59.802-4.687-18.027-18.027-18.027-47.255 0-65.282a45.964 45.964 0 0 1 28.087-13.293c13.242-1.256 26.922 3.185 37.061 13.325 18.044 18.043 18.044 47.299 0 65.343zm-76.235-76.234c-13.015 13.015-18.974 30.405-17.908 47.436l-58.419-58.419 29.866-29.866a63.013 63.013 0 0 0 2.899-2.713c13.015-13.015 18.974-30.404 17.908-47.436l58.419 58.419-29.972 29.972a61.49 61.49 0 0 0-2.793 2.607zm-54.648-54.423a45.971 45.971 0 0 1-28.087 13.294c-13.242 1.256-26.921-3.185-37.061-13.325-18.044-18.044-18.044-47.3 0-65.344a46.528 46.528 0 0 1 5.346-4.594c18.054-13.17 43.505-11.611 59.802 4.687 18.027 18.028 18.027 47.256 0 65.282zm-76.162 10.881a61.82 61.82 0 0 0 2.562 2.418l30.151 30.15-58.343 58.343c1.066-17.015-4.888-34.388-17.891-47.391-13.003-13.003-30.375-18.957-47.391-17.891l73.021-73.021c-1.066 17.016 4.888 34.389 17.891 47.392zm-54.401 54.401c18.027 18.027 18.027 47.255 0 65.282-18.027 18.027-47.255 18.027-65.282 0-18.027-18.027-18.027-47.255 0-65.282 18.027-18.027 47.254-18.027 65.282 0zm14.251 159.9h2.635c5.03 0 9.101 4.072 9.101 9.341l-.001 122.15c0 5.269-4.072 9.341-9.101 9.341h-2.635c-5.03-.24-9.101-4.311-9.101-9.341l.001-122.15c0-5.03 4.072-9.102 9.101-9.341zm141.365.001h2.634c5.03 0 9.101 4.072 9.101 9.341l-.001 122.15c0 5.269-4.072 9.341-9.101 9.341h-2.635c-5.03-.24-9.101-4.311-9.101-9.341l.001-122.15c.001-5.03 4.073-9.101 9.102-9.341zm153.345.002h2.635c5.03 0 9.101 4.072 9.101 9.341l-.001 122.15c0 5.269-4.072 9.341-9.102 9.341h-2.634c-5.03-.239-9.102-4.311-9.102-9.341l.001-122.15c.001-5.03 4.072-9.102 9.102-9.341zm76.672.001h2.634c5.03 0 9.102 4.072 9.102 9.341l-.001 122.15c0 5.269-4.072 9.341-9.102 9.341h-2.635c-5.03-.24-9.101-4.311-9.101-9.341l.001-122.15c.001-5.03 4.073-9.102 9.102-9.341z" fill-rule="evenodd" clip-rule="evenodd" fill="#009844"/></svg>